<svg id="Layer_1" data-name="Layer 1" xmlns="http://www.w3.org/2000/svg" viewBox="0 0 364.99 117.5"><defs><style>.cls-1,.cls-2{fill:#fff;}.cls-1,.cls-2,.cls-3{stroke:#000;stroke-width:2px;}.cls-1,.cls-3{stroke-linecap:round;}.cls-1{stroke-linejoin:round;}.cls-2,.cls-3{stroke-miterlimit:10;}.cls-3{fill:none;}</style></defs><path class="cls-1" d="M105.83,39.5c26,0,40,0,57,22-17,22-29,22-57,22C114.83,62.5,114.83,59.5,105.83,39.5Z" transform="translate(-38 -38.5)"/><line class="cls-2" x1="125.29" y1="23.01" x2="360" y2="23.01"/><line class="cls-2" y1="34.3" x2="66" y2="34.5"/><line class="cls-2" y1="12.3" x2="66" y2="12.5"/><line class="cls-2" x1="30.74" y1="34.72" x2="30.74" y2="73.5"/><line class="cls-2" x1="146.74" y1="23.72" x2="146.74" y2="51.5"/><circle cx="30.77" cy="34.45" r="2.83"/><circle cx="146.82" cy="23.08" r="2.83"/><path class="cls-2" d="M331,111,352,111c20,0,28,10,28,21,0,10-7,23-26,23L331,155Z" transform="translate(-38 -38.5)"/><path class="cls-3" d="M100.18,83.71c9-21,9-24,0-44" transform="translate(-38 -38.5)"/><line class="cls-2" x1="147" y1="105.62" x2="292.93" y2="105.62"/><line class="cls-2" x1="259" y1="83.62" x2="292.63" y2="83.62"/><line class="cls-2" x1="341.22" y1="94.54" x2="364.99" y2="94.54"/><path class="cls-1" d="M214.21,77.92c26,0,40,0,57,22-17,22-29,22-57,22C223.21,100.92,223.21,97.92,214.21,77.92Z" transform="translate(-38 -38.5)"/><line class="cls-2" x1="233.68" y1="61.42" x2="259" y2="61.42"/><line class="cls-2" x1="31" y1="72.71" x2="174.39" y2="72.91"/><line class="cls-2" x1="147" y1="50.71" x2="174.39" y2="50.91"/><path class="cls-3" d="M208.57,122.12c9-21,9-24,0-44" transform="translate(-38 -38.5)"/><line class="cls-2" x1="260.11" y1="84.33" x2="260.11" y2="60.56"/><line class="cls-2" x1="146.55" y1="73.61" x2="146.55" y2="106.5"/><circle cx="146.63" cy="72.96" r="2.83"/></svg>