<svg id="Layer_1" data-name="Layer 1" xmlns="http://www.w3.org/2000/svg" viewBox="0 0 149.07 102.5"><defs><style>.cls-1,.cls-2{fill:#fff;}.cls-1,.cls-2,.cls-3{stroke:#000;}.cls-1,.cls-3{stroke-linecap:round;}.cls-1{stroke-linejoin:round;}.cls-1,.cls-2,.cls-3,.cls-4{stroke-width:2px;}.cls-2,.cls-3,.cls-4{stroke-miterlimit:10;}.cls-3,.cls-4{fill:none;}.cls-4{stroke:#c1272d;}</style></defs><path class="cls-1" d="M105.83,39.5c26,0,40,0,57,22-17,22-29,22-57,22C114.83,62.5,114.83,59.5,105.83,39.5Z" transform="translate(-38 -38.5)"/><line class="cls-2" x1="125.29" y1="23.01" x2="149.07" y2="23.01"/><line class="cls-2" y1="34.3" x2="66" y2="34.5"/><line class="cls-2" y1="12.3" x2="66" y2="12.5"/><line class="cls-2" x1="30.74" y1="34.72" x2="30.74" y2="90.5"/><line class="cls-2" x1="46.74" y1="12.72" x2="46.74" y2="68.5"/><circle cx="30.77" cy="34.45" r="2.83"/><circle cx="46.82" cy="12.08" r="2.83"/><path class="cls-2" d="M106,96l21,0c20,0,28,10,28,21,0,10-7,23-26,23l-23,0Z" transform="translate(-38 -38.5)"/><path class="cls-3" d="M100.18,83.71c9-21,9-24,0-44" transform="translate(-38 -38.5)"/><line class="cls-2" x1="29.7" y1="90.62" x2="67.93" y2="90.62"/><line class="cls-2" x1="45.7" y1="68.62" x2="67.63" y2="68.62"/><line class="cls-2" x1="116.22" y1="79.54" x2="139.99" y2="79.54"/><circle class="cls-4" cx="47" cy="34.5" r="6"/></svg>