<svg id="Layer_1" data-name="Layer 1" xmlns="http://www.w3.org/2000/svg" viewBox="0 0 458.24 116.95"><defs><style>.cls-1,.cls-2,.cls-3{fill:#fff;stroke:#000;stroke-width:2px;}.cls-1{stroke-linecap:round;}.cls-1,.cls-2{stroke-linejoin:round;}.cls-3{stroke-miterlimit:10;}</style></defs><path class="cls-1" d="M248.94,39.1c26,0,40,0,57,22-17,22-29,22-57,22C257.94,62.1,257.94,59.1,248.94,39.1Z" transform="translate(-38.33 -38.1)"/><polygon class="cls-1" points="154.05 59.1 121.14 78.1 121.14 40.1 154.05 59.1"/><circle class="cls-1" cx="160.61" cy="58.6" r="5"/><polygon class="cls-1" points="324.05 23 291.14 42 291.14 4 324.05 23"/><circle class="cls-1" cx="330.61" cy="23" r="5"/><polygon class="cls-1" points="324.05 93.95 291.14 112.95 291.14 74.95 324.05 93.95"/><circle class="cls-1" cx="330.61" cy="93.95" r="5"/><path class="cls-1" d="M77.83,75.5c26,0,40,0,57,22-17,22-29,22-57,22C86.83,98.5,86.83,95.5,77.83,75.5Z" transform="translate(-38.33 -38.1)"/><path class="cls-1" d="M248.81,110.05c26,0,40,0,57,22-17,22-29,22-57,22C257.81,133.05,257.81,130.05,248.81,110.05Z" transform="translate(-38.33 -38.1)"/><path class="cls-1" d="M415.81,74.89c26,0,40,0,57,22-17,22-29,22-57,22C424.81,97.89,424.81,94.89,415.81,74.89Z" transform="translate(-38.33 -38.1)"/><line class="cls-1" x1="96.97" y1="59.41" x2="120.74" y2="59.41"/><line class="cls-1" x1="166.47" y1="58.7" x2="190.24" y2="58.7"/><line class="cls-1" x1="267.47" y1="93.95" x2="291.24" y2="93.95"/><line class="cls-1" x1="267.47" y1="23" x2="291.24" y2="23"/><line class="cls-2" x1="335.47" y1="93.7" x2="359.24" y2="93.7"/><line class="cls-2" x1="335.47" y1="22.7" x2="359.24" y2="22.7"/><line class="cls-2" x1="434.47" y1="58.7" x2="458.24" y2="58.7"/><line class="cls-2" x1="357.47" y1="69.7" x2="381.24" y2="69.7"/><line class="cls-2" x1="357.47" y1="47.7" x2="381.24" y2="47.7"/><line class="cls-2" x1="358.35" y1="22.81" x2="358.35" y2="46.58"/><line class="cls-2" x1="358.48" y1="69.52" x2="358.48" y2="93.29"/><line class="cls-3" x1="21.29" y1="105.43" x2="215.07" y2="105.43"/><line class="cls-3" x1="191.29" y1="83.43" x2="215.07" y2="83.43"/><line class="cls-3" x1="191.29" y1="34.43" x2="215.07" y2="34.43"/><line class="cls-2" x1="21.29" y1="12.43" x2="215.07" y2="12.43"/><line class="cls-3" x1="192.01" y1="34.54" x2="192.01" y2="58.31"/><line class="cls-3" x1="192.01" y1="59.92" x2="192.01" y2="83.7"/><circle cx="191.91" cy="58.12" r="2.83"/><line class="cls-3" y1="70.7" x2="43.77" y2="70.7"/><line class="cls-3" y1="48.7" x2="43.77" y2="48.7"/><line class="cls-3" x1="22.41" y1="71.12" x2="22.41" y2="106.12"/><line class="cls-2" x1="22.41" y1="13.12" x2="22.41" y2="48.12"/><circle cx="22.45" cy="70.85" r="2.83"/><circle cx="22.49" cy="48.48" r="2.83"/></svg>